<?xml version="1.0" encoding="utf-8"?>
<!-- Generator: Adobe Illustrator 24.2.1, SVG Export Plug-In . SVG Version: 6.00 Build 0)  -->
<svg version="1.1" id="logo_x5F_text" xmlns="http://www.w3.org/2000/svg" xmlns:xlink="http://www.w3.org/1999/xlink" x="0px"
	 y="0px" viewBox="0 0 173 38" style="enable-background:new 0 0 173 38;" xml:space="preserve">
<g>
	<path d="M106.16,6.24h-0.22c-0.45-0.13-1.05-0.27-1.78-0.41s-1.38-0.21-1.93-0.21c-1.77,0-3.06,0.39-3.86,1.18
		c-0.8,0.78-1.2,2.2-1.2,4.25v0.83h7.45v3.47H97.3v21.07h-4.13V15.36h-2.79v-3.47h2.79v-0.81c0-2.92,0.73-5.15,2.18-6.71
		c1.45-1.56,3.54-2.34,6.28-2.34c0.92,0,1.75,0.04,2.49,0.13c0.74,0.09,1.42,0.19,2.03,0.31V6.24z"/>
	<path d="M117.21,7.78h-4.66V3.5h4.66V7.78z M116.95,36.43h-4.13V11.89h4.13V36.43z"/>
	<path d="M54.38,21.35c0-3.56-0.9-6.31-2.69-8.24c-1.61-1.74-3.85-2.69-6.69-2.86v3.46c1.6,0.18,2.85,0.74,3.72,1.69
		c1.08,1.19,1.62,2.86,1.64,5.03H36.29c0.18-1.93,0.92-3.55,2.23-4.86c1.15-1.14,2.64-1.78,4.48-1.92v-3.39
		c-3.1,0.21-5.64,1.37-7.62,3.49c-2.19,2.36-3.29,5.54-3.29,9.56c0,4.06,1.14,7.19,3.43,9.39S40.99,36,45.06,36
		c1.6,0,3.12-0.2,4.57-0.59s2.87-0.89,4.26-1.47v-4.5h-0.22c-0.72,0.64-1.92,1.3-3.61,1.97c-1.69,0.67-3.37,1-5.04,1
		c-1.26,0-2.41-0.18-3.46-0.53S39.6,31,38.84,30.29c-0.79-0.72-1.41-1.64-1.87-2.76c-0.45-1.12-0.68-2.44-0.68-3.94h18.08V21.35z"/>
	<g>
		<path d="M141.8,30.24c-0.53,0.34-1.09,0.67-1.69,0.98c-0.69,0.35-1.46,0.64-2.33,0.86s-1.71,0.33-2.55,0.33
			c-2.4,0-4.27-0.79-5.59-2.38s-1.99-3.86-1.99-6.82c0-3.05,0.68-5.36,2.03-6.93c1.11-1.29,2.55-2.04,4.32-2.27v-3.61
			c-2.97,0.26-5.42,1.38-7.33,3.36c-2.21,2.29-3.31,5.43-3.31,9.45c0,2.15,0.29,4.04,0.88,5.65s1.41,2.94,2.48,4
			c1.05,1.05,2.32,1.84,3.8,2.36c1.48,0.52,3.11,0.78,4.88,0.78c1.39,0,2.71-0.18,3.94-0.55s2.55-0.88,3.92-1.54v-4.55h-0.22
			C142.74,29.6,142.33,29.89,141.8,30.24z"/>
		<path d="M139.55,10.91c-1.16-0.34-2.35-0.52-3.55-0.57v3.6c1.03,0.08,2.08,0.33,3.15,0.75c1.34,0.53,2.64,1.28,3.9,2.26h0.22
			v-4.59C142.14,11.79,140.9,11.31,139.55,10.91z"/>
	</g>
	<g>
		<polygon points="8,2.72 1.5,2.72 1.5,35.43 5.57,35.43 5.57,6.17 8,10.76 		"/>
		<polygon points="22.4,2.72 22.4,29.44 10,6.03 10,14.53 21.08,35.43 26.46,35.43 26.46,2.72 		"/>
	</g>
	<path d="M81.48,13.69c-1.9-2.15-4.4-3.29-7.48-3.45v3.56c1.85,0.16,3.33,0.92,4.43,2.28c1.25,1.55,1.87,3.91,1.87,7.09
		c0,3.11-0.63,5.45-1.88,7.02c-1.25,1.57-2.98,2.36-5.17,2.36c-2.23,0-3.96-0.79-5.21-2.38c-1.25-1.59-1.87-3.92-1.87-7
		c0-3.18,0.62-5.54,1.86-7.09c1-1.25,2.33-1.98,3.98-2.22v-3.6c-2.89,0.25-5.24,1.39-7.03,3.43c-2.04,2.32-3.07,5.48-3.07,9.48
		s1.02,7.16,3.07,9.47c2.04,2.31,4.8,3.47,8.27,3.47c3.44,0,6.19-1.16,8.24-3.47s3.08-5.47,3.08-9.47S83.53,16.01,81.48,13.69z"/>
	<path d="M171.76,21.5c0-3.56-0.9-6.31-2.69-8.24c-1.61-1.74-3.85-2.69-6.69-2.86v3.46c1.6,0.18,2.85,0.74,3.72,1.69
		c1.08,1.19,1.62,2.86,1.64,5.03h-14.06c0.18-1.93,0.92-3.55,2.23-4.86c1.15-1.14,2.64-1.78,4.48-1.92V10.4
		c-3.1,0.21-5.64,1.37-7.62,3.49c-2.19,2.36-3.29,5.54-3.29,9.56c0,4.06,1.14,7.19,3.43,9.39s5.46,3.31,9.54,3.31
		c1.6,0,3.12-0.2,4.57-0.59s2.87-0.89,4.26-1.47v-4.5h-0.22c-0.72,0.64-1.92,1.3-3.61,1.97c-1.69,0.67-3.37,1-5.04,1
		c-1.26,0-2.41-0.18-3.46-0.53s-1.95-0.88-2.71-1.58c-0.79-0.72-1.41-1.64-1.87-2.76c-0.45-1.12-0.68-2.44-0.68-3.94h18.08V21.5z"/>
</g>
</svg>
