<?xml version="1.0" encoding="utf-8"?>
<!-- Generator: Adobe Illustrator 24.2.1, SVG Export Plug-In . SVG Version: 6.00 Build 0)  -->
<svg version="1.1" id="logo_x5F_img" xmlns="http://www.w3.org/2000/svg" xmlns:xlink="http://www.w3.org/1999/xlink" x="0px"
	 y="0px" viewBox="0 0 80 134" style="enable-background:new 0 0 80 134;" xml:space="preserve">
<style type="text/css">
	.st0{fill:#15262E;}
	.st1{fill:#FDC12F;}
</style>
<g>
	<polygon class="st0" points="39.36,103.25 11.36,78.25 11.36,40.25 38.37,12.75 41.35,12.75 49.38,21.23 55.86,14.75 41.86,0.75 
		37.86,0.75 0.86,37.75 0.86,82.75 32.38,111.02 39.55,103.25 	"/>
	<path class="st1" d="M66.36,25.25l-6.5-6.5l-1.18-1.18l-6.95,6.95c-8.91,9.43-24.04,25.4-28.88,30.23c-1,1-2,2-2,4c0,4,4,4,4,4h17
		l-20.5,20.5l7.5,7.5c0,0,18-18,25-25c5-5,6-5,6-8c0-4-3-4-3-4h-19L60,31.6l9.36,8.64v38l-34.5,35v19.5h10v-16l34-34v-45
		L66.36,25.25z"/>
</g>
</svg>
