<?xml version="1.0" encoding="utf-8"?>
<!-- Generator: Adobe Illustrator 24.2.1, SVG Export Plug-In . SVG Version: 6.00 Build 0)  -->
<svg version="1.1" id="logo_x5F_img" xmlns="http://www.w3.org/2000/svg" xmlns:xlink="http://www.w3.org/1999/xlink" x="0px"
	 y="0px" viewBox="0 0 299 134" style="enable-background:new 0 0 299 134;" xml:space="preserve">
<style type="text/css">
	.st0{fill:#15262E;}
	.st1{fill:#FDC12F;}
</style>
<g>
	<polygon class="st0" points="39.4,103.3 11.4,78.3 11.4,40.3 38.4,12.8 41.3,12.8 49.4,21.2 55.9,14.8 41.9,0.8 37.9,0.8 0.9,37.8 
		0.9,82.8 32.4,111 39.5,103.3 	"/>
	<path class="st1" d="M66.4,25.3l-6.5-6.5l-1.2-1.2l-7,7c-8.9,9.4-24,25.4-28.9,30.2c-1,1-2,2-2,4c0,4,4,4,4,4h17L21.3,83.3l7.5,7.5
		c0,0,18-18,25-25c5-5,6-5,6-8c0-4-3-4-3-4h-19L60,31.6l9.4,8.6v38l-34.5,35v19.5h10v-16l34-34v-45L66.4,25.3z"/>
</g>
<g>
	<path d="M230.5,50.8h-0.2c-0.5-0.1-1.1-0.3-1.8-0.4c-0.7-0.1-1.4-0.2-1.9-0.2c-1.8,0-3.1,0.4-3.9,1.2c-0.8,0.8-1.2,2.2-1.2,4.3v0.8
		h7.4v3.5h-7.3v21.1h-4.1V59.9h-2.8v-3.5h2.8v-0.8c0-2.9,0.7-5.2,2.2-6.7c1.4-1.6,3.5-2.3,6.3-2.3c0.9,0,1.8,0,2.5,0.1
		s1.4,0.2,2,0.3L230.5,50.8L230.5,50.8z"/>
	<path d="M241.5,52.3h-4.7V48h4.7C241.5,48,241.5,52.3,241.5,52.3z M241.3,81h-4.1V56.4h4.1V81z"/>
	<path d="M178.7,65.9c0-3.6-0.9-6.3-2.7-8.2c-1.6-1.7-3.9-2.7-6.7-2.9v3.5c1.6,0.2,2.8,0.7,3.7,1.7c1.1,1.2,1.6,2.9,1.6,5h-14.1
		c0.2-1.9,0.9-3.6,2.2-4.9c1.2-1.1,2.6-1.8,4.5-1.9v-3.4c-3.1,0.2-5.6,1.4-7.6,3.5c-2.2,2.4-3.3,5.5-3.3,9.6c0,4.1,1.1,7.2,3.4,9.4
		c2.3,2.2,5.5,3.3,9.5,3.3c1.6,0,3.1-0.2,4.6-0.6s2.9-0.9,4.3-1.5V74H178c-0.7,0.6-1.9,1.3-3.6,2c-1.7,0.7-3.4,1-5,1
		c-1.3,0-2.4-0.2-3.5-0.5c-1.1-0.3-2-0.9-2.7-1.6c-0.8-0.7-1.4-1.6-1.9-2.8c-0.5-1.1-0.7-2.4-0.7-3.9h18.1L178.7,65.9L178.7,65.9z"
		/>
	<g>
		<path d="M266.1,74.8c-0.5,0.3-1.1,0.7-1.7,1c-0.7,0.3-1.5,0.6-2.3,0.9c-0.9,0.2-1.7,0.3-2.6,0.3c-2.4,0-4.3-0.8-5.6-2.4
			c-1.3-1.6-2-3.9-2-6.8c0-3,0.7-5.4,2-6.9c1.1-1.3,2.6-2,4.3-2.3v-3.6c-3,0.3-5.4,1.4-7.3,3.4c-2.2,2.3-3.3,5.4-3.3,9.4
			c0,2.2,0.3,4,0.9,5.7s1.4,2.9,2.5,4c1.1,1.1,2.3,1.8,3.8,2.4c1.5,0.5,3.1,0.8,4.9,0.8c1.4,0,2.7-0.2,3.9-0.5
			c1.2-0.4,2.5-0.9,3.9-1.5v-4.6h-0.2C267.1,74.1,266.7,74.4,266.1,74.8z"/>
		<path d="M263.9,55.4c-1.2-0.3-2.4-0.5-3.5-0.6v3.6c1,0.1,2.1,0.3,3.1,0.8c1.3,0.5,2.6,1.3,3.9,2.3h0.2v-4.6
			C266.5,56.3,265.2,55.8,263.9,55.4z"/>
	</g>
	<g>
		<polygon points="132.3,47.3 125.8,47.3 125.8,80 129.9,80 129.9,50.7 132.3,55.3 		"/>
		<polygon points="146.7,47.3 146.7,74 134.3,50.6 134.3,59.1 145.4,80 150.8,80 150.8,47.3 		"/>
	</g>
	<path d="M205.8,58.2c-1.9-2.2-4.4-3.3-7.5-3.5v3.6c1.8,0.2,3.3,0.9,4.4,2.3c1.3,1.5,1.9,3.9,1.9,7.1c0,3.1-0.6,5.4-1.9,7
		s-3,2.4-5.2,2.4c-2.2,0-4-0.8-5.2-2.4c-1.3-1.6-1.9-3.9-1.9-7c0-3.2,0.6-5.5,1.9-7.1c1-1.3,2.3-2,4-2.2v-3.6
		c-2.9,0.3-5.2,1.4-7,3.4c-2,2.3-3.1,5.5-3.1,9.5s1,7.2,3.1,9.5c2,2.3,4.8,3.5,8.3,3.5c3.4,0,6.2-1.2,8.2-3.5
		c2.1-2.3,3.1-5.5,3.1-9.5C208.9,63.7,207.9,60.5,205.8,58.2z"/>
	<path d="M296.1,66c0-3.6-0.9-6.3-2.7-8.2c-1.6-1.7-3.9-2.7-6.7-2.9v3.5c1.6,0.2,2.9,0.7,3.7,1.7c1.1,1.2,1.6,2.9,1.6,5H278
		c0.2-1.9,0.9-3.5,2.2-4.9c1.1-1.1,2.6-1.8,4.5-1.9v-3.4c-3.1,0.2-5.6,1.4-7.6,3.5c-2.2,2.4-3.3,5.5-3.3,9.6c0,4.1,1.1,7.2,3.4,9.4
		c2.3,2.2,5.5,3.3,9.5,3.3c1.6,0,3.1-0.2,4.6-0.6s2.9-0.9,4.3-1.5v-4.5h-0.2c-0.7,0.6-1.9,1.3-3.6,2c-1.7,0.7-3.4,1-5,1
		c-1.3,0-2.4-0.2-3.5-0.5c-1.1-0.3-2-0.9-2.7-1.6c-0.8-0.7-1.4-1.6-1.9-2.8c-0.4-1.1-0.7-2.4-0.7-3.9h18.1L296.1,66L296.1,66z"/>
</g>
</svg>
